<?xml version="1.0" encoding="utf-8"?>
<!-- Generator: Adobe Illustrator 21.0.0, SVG Export Plug-In . SVG Version: 6.00 Build 0)  -->
<svg version="1.1" id="图层_1" xmlns="http://www.w3.org/2000/svg" xmlns:xlink="http://www.w3.org/1999/xlink" x="0px" y="0px"
	 viewBox="0 0 800 800" style="enable-background:new 0 0 800 800;" xml:space="preserve">
<style type="text/css">
	.st0{fill:#110000;}
	.st1{fill:#EDAF49;}
	.st2{fill:#E18322;}
	.st3{fill:#C76E1E;}
	.st4{fill:#EFA02B;}
	.st5{fill:#DC7B1E;}
	.st6{fill:#DB7B1E;}
	.st7{fill:#B45510;}
	.st8{fill:#FEC15D;}
	.st9{fill:#C46517;}
	.st10{fill:#963D09;}
	.st11{fill:#CD6E19;}
	.st12{fill:#DD7C20;}
	.st13{fill:#D1721B;}
	.st14{fill:#B35612;}
	.st15{fill:#9D430B;}
	.st16{fill:#7C2A04;}
	.st17{fill:#C76716;}
	.st18{fill:#120000;}
</style>
<g>
	<path class="st0" d="M378.9,23.3c94.4,0,188.8,0,283.1-0.1c3.7,0,5,0.6,4.8,4.7c-0.4,9.1,0,18.3-0.2,27.5c0,2.6,0.5,3.5,3.3,3.5
		c9.3-0.2,18.6,0,27.9-0.1c2.7,0,3.5,0.5,3.4,3.4c-0.2,10.2,0,20.4-0.1,30.6c0,2.7,0.6,3.5,3.4,3.4c9.3-0.2,18.6,0.1,27.9-0.2
		c3.4-0.1,4.3,0.8,4.3,4.3c-0.1,104.3-0.1,208.5-0.1,312.8c0,3-0.2,5.9,0.1,8.9c0.2,2.4-0.6,3-2.9,3c-10-0.1-20.1,0.1-30.1-0.1
		c-2.7,0-3.4,0.6-3.4,3.4c0.1,50.7,0.1,101.3,0,152c0,2.7,0.6,3.5,3.4,3.4c9.3-0.2,18.6,0,27.9-0.1c2.7-0.1,3.5,0.6,3.4,3.4
		c-0.2,9.7,0.1,19.5-0.2,29.2c-0.1,3.2,1,3.9,4,3.8c12-0.2,23.9,0,35.9-0.1c2.7,0,3.7,0.5,3.7,3.5c-0.1,24.8-0.2,49.6,0,74.4
		c0,3.3-1.1,3.7-4,3.7c-10.8-0.2-21.6,0-32.3-0.1c-2.8,0-3.8,0.5-3.7,3.6c0.2,10.3,0,20.7,0.1,31c0,2.8-0.6,3.7-3.6,3.7
		c-9.7-0.2-19.5,0-29.2-0.1c-2.8,0-3.7,0.6-3.7,3.6c0.2,9.4,0,18.9,0.1,28.4c0,2.4-0.1,3.5-3.1,3.5c-60.9-0.1-121.7,0-182.6,0.1
		c-105.3,0.3-210.6,1.2-315.9,0.9c-10,0-20.1,0.4-30.1,0.9c-3.5,0.2-4.8-0.5-4.7-4.4c0.3-8.8-0.1-17.7,0.2-26.6
		c0.1-3.5-0.6-4.8-4.4-4.6c-8.7,0.3-17.4,0-26.1,0.2c-3.2,0.1-4.3-0.5-4.2-4c0.3-10.5,0-21,0.2-31.5c0-2.8-0.5-3.8-3.6-3.7
		c-9.6,0.2-19.2,0-28.8,0.1c-2.4,0-3.2-0.5-3.2-3.1c0.1-62.3,0.1-124.7,0-187c0-3,1.2-3.2,3.6-3.2c8.3,0.1,16.5-0.2,24.8,0.1
		c3.6,0.1,4.6-0.7,4.6-4.5c-0.2-43.7,0-87.4-0.2-131.2c0-3.6,0.8-4.7,4.5-4.6c8.4,0.3,16.8,0,25.3,0.2c2.5,0,3.2-0.6,3.2-3.2
		c-0.1-41.6-0.1-83.3,0-124.9c0-3.7-1.9-3.1-4.1-3.1c-32.1,0-64.1-0.1-96.2,0.1c-3.7,0-4.7-0.8-4.5-4.5c0.3-9.6,0-19.2,0.2-28.8
		c0-2.5-0.7-3.2-3.2-3.2c-9.7,0.1-19.5,0-29.2,0.1c-2.5,0-3.1-0.7-3.1-3.2c0.1-34.9,0.1-69.7,0-104.6c0-2.5,0.7-3.2,3.2-3.1
		c9.3,0.1,18.6-0.1,27.9,0.1c3,0.1,3.6-0.9,3.6-3.7C56,78.2,56.3,69.4,56,60.5c-0.1-3,0.9-3.6,3.7-3.6c9,0.2,18,0,27,0.1
		c2.5,0,3.2-0.6,3.2-3.2c-0.2-8.6,0-17.1-0.4-25.7c-0.2-4,1.1-5,4.9-5c32,0.1,64.1,0.1,96.2,0.1C253.3,23.3,316.1,23.3,378.9,23.3z"
		/>
	<path class="st1" d="M285.8,661.4c0-12.7-0.1-25.4-0.2-38.1c0-2.2,0.7-2.9,2.8-2.7c0.9,0.1,1.8,0,2.7,0c146.2,0,292.3,0,438.5-0.1
		c4.3,0,5.7,0.8,5.5,5.4c-0.4,11.8-0.2,23.6-0.3,35.4c-1.2,1.3-2.9,1.4-4.5,1.4c-1.5,0.1-3,0-4.4,0c-143.7,0-287.4,0-431.1,0
		C291.7,662.9,288.5,663.7,285.8,661.4z"/>
	<path class="st2" d="M285.8,661.4c149.7,0,299.4,0,449,0c0,11.2,0,22.4,0.2,33.6c0,2.5-1.1,2.8-3.2,2.8c-9-0.1-18-0.1-27,0
		c-1.4,0-3.4-0.9-3.7,1.7c-1.2,1.3-2.9,1.4-4.5,1.4c-1.5,0.1-3,0-4.4,0c-132.5,0-265,0-397.5,0c-3,0-6.3,0.8-8.9-1.4
		C285.8,686.8,285.8,674.1,285.8,661.4z"/>
	<path class="st3" d="M285.8,699.5c138.5,0,276.9,0,415.4,0c0,12.2,0,24.5,0.2,36.7c0.1,3.7-2,3.1-4.2,3.1c-33.8,0-67.6,0-101.4,0
		c-101.6,0-203.1,0-304.7,0.1c-4.4,0-5.7-0.9-5.6-5.5C286,722.5,285.8,711,285.8,699.5z"/>
	<path class="st4" d="M698.7,91.4c-8.1,0-20,0-33-0.1c0-8.5-0.2-17,0.3-25.4c0.2-4.5-1.1-5.5-5.5-5.5
		c-160.6,0.1-321.2,0.1-481.8,0.1c-0.9,0-1.8,0.1-2.7,0c-2.3-0.3-3,0.7-3,3c0.1,8.9,0.2,17.7,0,26.6c-0.1,2.9,1,3.4,3.6,3.3
		c7.4-0.1,14.8,0,22.1,0c0.3,0.1,0.6,0.2,0.9,0.2c-0.1,5.7,0.8,15.2-0.6,16.5c0,18.4-0.1,36.9-0.1,55.3c0,68.4-0.1,136.8-0.1,205.3
		c1,16.9,0.2,33.8,0.5,50.7c0.1,3.4-1.3,4.7-4.7,4.7c-6.6-0.1-13.2-0.1-19.8,0c-2,0-4.2-0.2-5.8,1.4c0,2.8-0.1,5.6-0.1,8.4
		c-0.1,25.2-0.1,50.5-0.1,75.7c1.6,1.7,3.8,1.4,5.8,1.5c5.9,0.1,11.8,0,17.7,0.1c4.6,0.1,5.1,0.5,5.2,5.1c0.1,5.3,0,10.6,0,15.9
		c0,10.7,0.1,10.9,10.8,10.9c94,0,188,0,282,0c1.6,0,3.2,0,4.9,0c4.8,0.1,5.3,0.5,5.3,5.4c0.1,8.9,0,17.7,0,26.6
		c0,2.2-0.3,4.5,1.4,6.3c5.9,0,11.8,0,17.7,0c1.7-1.8,1.4-4.1,1.4-6.3c0.1-9,0.1-18,0-27c0-3.5,1.2-5.3,4.9-5c1.5,0.1,2.9,0,4.4,0
		c19.2,0,38.3,0,57.5,0c6.6,0,7.6-1,7.7-7.3c0.1-8.3,0.1-16.5,0-24.8c0-1.8,0-3.6-1.3-5c-2.4-1.6-5.1-1.2-7.7-1.2
		c-32.2,0-64.4,0-96.5,0c-20.4,0-40.7,0-61.1,0c-5.6,0-6-0.4-6-6.1c-0.1-8.1,0-16.2,0-24.4c0-5.2,0.4-5.6,5.5-5.6
		c52.8,0,105.7,0,158.5,0c5.6,0,5.9,0.4,5.9,6.2c0,8.1,0,16.2,0,24.4c0,2.2-0.3,4.5,1.3,6.3c1.7,1.2,3.6,1.2,5.5,1.2
		c6.6,0,13.3,0,19.9,0c11.6,0,11.6,0,11.6-11.4c0-22.4,0-44.8,0-67.2c0-6.2,0.3-6.4,6.5-6.4c6,0,12.1,0,18.1,0c2.1,0,4.2,0,5.9-1.4
		c0.3,0,0.5-0.1,0.8-0.2c1.9-2.1,1.4-4.7,1.4-7.2c0.1-17.7,0-35.3,0-53c0-5.2,0.4-5.6,5.5-5.6c7.7-0.1,15.3,0,23,0
		c2.2,0,4.5,0.3,6.3-1.4c0-1,0.1-2.1,0.1-3.1c0-79.5,0-159,0-238.4c0-1-0.1-2.1-0.1-3.1C698.7,106.6,698.7,93,698.7,91.4z"/>
	<path class="st5" d="M168.6,511.6c8.6,0,17.1,0.2,25.7,0c3.8-0.1,4.7,1.2,4.6,4.8c-0.2,7.7,0.1,15.3-0.1,23c-0.1,3.3,1,4.3,4.3,4.2
		c21-0.1,41.9-0.1,62.9-0.1c76.7,0,153.5,0,230.2,0c5.8,0,5.8,0,5.8,5.6c0,11.4,0,22.7,0,34.1c-1.9,0-3.8,0.1-5.8,0.1
		c-94.7,0-189.3,0-284,0c-1.8,0-3.5,0-5.3,0.1c-1.6,1.3-3.5,1.4-5.4,1.4c-10.3,0-20.6,0.1-30.9,0c-5.6-0.1-6.7-1.2-6.8-6.8
		c-0.1-8.7,0-17.4-0.1-26c0-5.7-0.4-6-5.9-6.1c-5.9,0-11.8,0-17.7,0c-2,0-4.2,0.2-5.8-1.4c0-9.9,0-19.7-0.2-29.6
		c-0.1-3,1.2-3.3,3.6-3.3C148,511.7,158.3,511.6,168.6,511.6z"/>
	<path class="st6" d="M594.2,507.2c10.3,0,20.6-0.1,30.9,0.1c3.5,0.1,4.5-1,4.5-4.5c-0.1-25.2,0-50.4-0.2-75.6c0-4,1-5.3,5.1-5.2
		c9,0.3,18,0.1,27,0.1c0,51.7-0.1,103.3-0.1,155c0,6.2,0,6.2-6.3,6.2c-43.4,0-86.8,0-130.2,0c-1.8,0-3.5-0.1-5.3-0.1
		c0-11.8,0.1-23.6-0.1-35.4c-0.1-3.5,1.1-4.5,4.5-4.5c21.8,0.1,43.6,0,65.4,0.2c3.7,0,4.8-1,4.7-4.7c-0.2-10.3-0.1-20.6-0.1-30.9
		C593.8,507.7,593.9,507.4,594.2,507.2z"/>
	<path class="st7" d="M98.6,198.7c-11.7,0-23.3,0-35,0.2c-2.7,0-3.1-1-3.1-3.4c0.1-33.2,0.1-66.5,0-99.7c0-2.8,1-3.5,3.6-3.4
		c8.1,0.1,16.2,0,24.4,0.1c3.1,0.1,4.2-1.1,4.1-4.2c-0.1-8,0-16-0.1-23.9c0-2.7,0.4-4,3.5-3.9c11.2,0.2,22.4,0.2,33.7,0
		c3.1-0.1,3.6,1.2,3.6,3.9c-0.1,27.3-0.1,54.6,0,82c0,2.8-0.7,3.8-3.7,3.8c-9.2-0.2-18.3,0-27.5-0.1c-2.7,0-3.6,0.7-3.5,3.5
		c0.2,4.4,0.1,8.9,0.1,13.3C99,167.2,99,198.3,98.6,198.7z"/>
	<path class="st8" d="M198.7,93.4c1.3-1.5,3-0.9,4.6-0.9c119.3,0,238.6,0,357.9,0c0,4.9-0.1,9.7,0.1,14.6c0.1,2.3-0.8,3.3-3.1,3.1
		c-0.6-0.1-1.2,0-1.8,0c-119.2,0-238.3,0-357.5,0C198.9,104.6,198.8,99,198.7,93.4z"/>
	<path class="st9" d="M134.3,544.4c9,0,18,0.1,26.9,0c3.1-0.1,4.1,0.9,4,4c-0.2,10.3,0.1,20.6-0.1,30.9c-0.1,3.4,1.1,4.2,4.3,4.2
		c12.5-0.1,25,0,37.5,0c0,11.2-0.2,22.3,0,33.5c0,2.9-0.8,3.7-3.7,3.7c-12.9-0.1-25.9,0-38.8,0c-0.8,0.6-1.7,1.1-2.8,1.2
		c-8.2,0.3-16.4,0.3-24.6,0c-1,0-2-0.5-2.7-1.3C134.3,595.2,134.3,569.8,134.3,544.4z"/>
	<path class="st10" d="M205.1,699.5c9.4,0,18.9,0.1,28.3,0c2.6,0,3.6,0.7,3.6,3.5c-0.1,11.1-0.1,22.1,0,33.2c0,2.5-0.8,3.3-3.3,3.3
		c-20.2-0.1-40.4-0.1-60.7,0c-2.7,0-3.5-0.8-3.5-3.5c0.1-12.1,0-24.2,0-36.3c1.3-1.5,3.2-1.5,4.9-1.5c8.6-0.1,17.1-0.1,25.7,0
		C201.8,698.1,203.6,698.3,205.1,699.5z"/>
	<path class="st11" d="M205.1,699.5c-11.9,0-23.7,0.1-35.6,0.1c-10.6,0-21.2-0.1-31.8,0c-2.4,0-3.7-0.2-3.7-3.3
		c0.2-11,0.2-22,0.2-33.1c1.1-1.2,2.6-1.4,4-1.4c7.3-0.1,14.6-0.1,22,0c1.5,0,2.9,0.3,4.1,1.3c12.2,0,24.4,0.2,36.6,0
		c3.4-0.1,4.2,0.9,4.1,4.2C204.9,678,205,688.8,205.1,699.5z"/>
	<path class="st12" d="M662.3,422c0-20.9,0.1-41.8,0-62.8c0-3.4,0.9-4.6,4.4-4.5c10.6,0.2,21.2,0.1,31.8,0.1
		c0,21.5,0.1,43.1,0.2,64.6c0,2.1-0.6,2.8-2.8,2.8C684.7,422.1,673.5,422,662.3,422z"/>
	<path class="st13" d="M198.7,370.7c2.2,0.2,1.8,1.9,1.8,3.3c0,16.6,0,33.3,0.1,49.9c0,2.7-0.9,3.6-3.6,3.6c-9.4-0.1-18.8,0-28.2,0
		c-0.1-18-0.1-35.9-0.2-53.9c0-2.5,1-2.9,3.1-2.9C180.8,370.8,189.7,370.7,198.7,370.7z"/>
	<path class="st8" d="M598.4,92.1c23.1-0.6,100.6-0.7,100.6-0.7s-0.1,5.2-0.3,7.7c-0.2,3.7-0.1,7.4-0.2,11c-31.9,0-63.8,0-95.6,0.1
		c-3.6,0-4.6-1-4.4-4.5C598.4,101.1,598.4,96.5,598.4,92.1z"/>
	<path class="st14" d="M243.1,640.9c0,5.6-0.1,11.2,0,16.8c0,2.1-0.6,2.9-2.8,2.8c-10-0.1-20.1-0.1-30.1,0c-1.9,0-2.6-0.6-2.6-2.5
		c0.1-11.5,0.1-23,0-34.5c0-2.5,1.2-2.8,3.2-2.8c9.7,0.1,19.5,0.1,29.2,0c2.3,0,3.1,0.7,3.1,3C243,629.4,243.1,635.1,243.1,640.9z"
		/>
	<path class="st15" d="M164.4,663.1c-10,0-20.1,0.1-30.1,0.1c0-14.2,0-28.4,0-42.6c10,0,20.1,0.1,30.1,0.1
		C164.4,634.9,164.4,649,164.4,663.1z"/>
	<path class="st16" d="M98.6,198.7c0.1-10.6,0.1-21.3,0.2-31.9c12.1,0.1,24.2,0.2,36.3,0.2c1.1,1.2,1.3,2.6,1.3,4.1
		c0.1,7.8,0.1,15.6,0,23.4c0,1.5-0.2,3-1.3,4.1C122.9,198.7,110.8,198.7,98.6,198.7z"/>
	<path class="st17" d="M135.1,198.7c0-10.6,0-21.1,0-31.7c7.8,0,15.6,0,23.5-0.2c2.3,0,3.1,0.6,3.1,3c-0.1,8.6,0,17.1,0.1,25.7
		c0,2.4-0.6,3.4-3.2,3.3C150.7,198.7,142.9,198.7,135.1,198.7z"/>
	<path class="st18" d="M393.8,237.8c-33.4,0-66.8-0.1-100.1,0.1c-3.8,0-4.6-1-4.5-4.6c0.2-12.4,0.2-24.8,0-37.2
		c0-2.6,0.6-3.5,3.4-3.5c67.5,0.1,135,0.1,202.5,0c2.8,0,3.4,0.8,3.4,3.5c-0.1,12.6-0.2,25.1,0,37.7c0.1,3.8-1.4,4.2-4.5,4.2
		C460.5,237.8,427.2,237.8,393.8,237.8z"/>
	<path class="st18" d="M476,388.5c37.7,0,75.3,0.1,113-0.1c3.6,0,4.4,1,4.3,4.4c-0.2,9.2-0.3,18.3,0,27.5c0.1,3.6-0.8,4.7-4.5,4.6
		c-24.7-0.2-49.3-0.1-74-0.1c-50.7,0-101.3,0-152,0.1c-3.8,0-4.7-1-4.5-4.6c0.3-9,0.3-18,0-27c-0.1-3.8,0.7-4.9,4.8-4.9
		C400.7,388.5,438.3,388.5,476,388.5z"/>
	<path class="st18" d="M374.7,331.7c-26.4,0-52.9-0.1-79.3,0.1c-3.8,0-4.6-1-4.5-4.6c0.3-10.9,0.2-21.9,0-32.8
		c0-2.6,0.6-3.5,3.4-3.5c53.6,0.1,107.2,0.1,160.8,0c2.8,0,3.4,0.8,3.4,3.5c-0.1,11.1-0.2,22.2,0,33.2c0.1,3.8-1.4,4.2-4.5,4.2
		C427.6,331.7,401.2,331.7,374.7,331.7z"/>
	<path class="st18" d="M594.2,507.2c-0.1,0.2-0.2,0.5-0.2,0.8c-16.4,0-32.8,0.1-49.1,0.1c-39.8,0-79.7,0-119.5,0.1
		c-3.2,0-4.3-0.6-4.2-4c0.3-10.5,0.2-21,0-31.4c0-2.9,0.8-3.7,3.7-3.7c55.2,0.1,110.4,0.1,165.6,0c2.8,0,3.7,0.7,3.7,3.6
		C594,484.2,594.2,495.7,594.2,507.2z"/>
	<path class="st18" d="M559.2,331.7c-22.6,0-45.2-0.1-67.8,0.1c-3.5,0-4.8-0.5-4.7-4.5c0.3-10.6,0.2-21.3,0-31.9
		c0-2.9,0.8-3.7,3.7-3.7c45.8,0.1,91.6,0.1,137.3,0c3.1,0,3.6,1.1,3.6,3.8c-0.1,10.8-0.2,21.6,0,32.3c0.1,3.1-0.8,3.9-3.9,3.9
		C604.7,331.7,582,331.8,559.2,331.7C559.2,331.8,559.2,331.8,559.2,331.7z"/>
	<path class="st18" d="M315.1,508.1c-22.3,0-44.6-0.1-66.9,0.1c-3.6,0-4.4-1.1-4.3-4.4c0.2-10.5,0.1-21,0-31.5
		c0-2.4,0.6-3.3,3.2-3.3c45.5,0.1,91,0.1,136.5,0c2.6,0,3.2,0.8,3.2,3.3c-0.1,10.8-0.2,21.6,0,32.3c0.1,3.2-1.2,3.5-3.9,3.5
		C360.3,508.1,337.7,508.1,315.1,508.1z"/>
	<path class="st18" d="M580.4,194.4c15.9,0,31.9,0.1,47.8-0.1c3,0,4,0.6,4,3.8c-0.2,11.4-0.2,22.7,0,34.1c0.1,3.2-0.9,3.8-4,3.8
		c-32-0.1-64.1-0.1-96.1,0c-2.8,0-3.8-0.6-3.7-3.6c0.2-11.5,0.2-23,0-34.6c0-3,0.9-3.6,3.7-3.6C548.3,194.4,564.3,194.4,580.4,194.4
		z"/>
	<path class="st18" d="M288.3,405.3c0-5.2,0.1-10.3-0.1-15.5c-0.1-2.6,0.8-3.2,3.3-3.2c10.6,0.1,21.3,0.1,31.9,0
		c2.2,0,3.1,0.5,3.1,2.9c-0.1,10.8-0.1,21.6,0,32.3c0,2.4-0.8,3-3.1,2.9c-10.6-0.1-21.3-0.1-31.9,0c-2.4,0-3.4-0.6-3.3-3.2
		C288.5,416.2,288.3,410.8,288.3,405.3z"/>
</g>
</svg>
