<svg xmlns="http://www.w3.org/2000/svg" xmlns:xlink="http://www.w3.org/1999/xlink" viewBox="0 0 795.67 795.67"><defs><clipPath id="a" transform="translate(-169.09 -169.09)"><rect width="1133.86" height="1133.86" style="fill:none"/></clipPath></defs><title>fishpi_bg</title><g style="clip-path:url(#a)"><path d="M871.42,964.77h-609a93.35,93.35,0,0,1-93.35-93.35v-609a93.35,93.35,0,0,1,93.35-93.35h609a93.35,93.35,0,0,1,93.35,93.35v609a93.35,93.35,0,0,1-93.35,93.35" transform="translate(-169.09 -169.09)" style="fill:#f0d35e"/><path d="M854.23,644.34c66.42-48.9,46-73.86,46-73.86-46.8-79.89-132.09,19-132.09,19C578,503.59,479.86,513.57,479.86,513.57,280.59,525.52,270,644.34,270,644.34c0,151.78,189.44,148.8,189.44,148.8,135.86,8,304.18-87.86,304.18-87.86C869.33,786.13,889,734.21,889,734.21c32.47-47.94-34.72-89.87-34.72-89.87" transform="translate(-169.09 -169.09)" style="fill:#ed8f26"/><path d="M476,807c-5.65,0-11.27-.15-16.85-.47-8.73.17-103.86-.58-160.88-56.7-27.61-27.18-41.61-62.66-41.61-105.47l.05-1.18c.12-1.39,3.38-34.47,33.48-68.57,39-44.13,102.43-69.14,188.63-74.35,7.35-.66,103.94-7.55,286.12,73.11,15.54-15.75,54.81-50.73,94.1-47.15,21.42,2,39.08,14.42,52.47,37,2.1,3.09,6.28,11,4.74,23.24-2.26,17.91-15.74,37.27-40.13,57.7,12.51,10.78,29.08,28.68,33.76,50.76,3.38,15.93.27,31.34-9.22,45.82-2.27,4.65-9.48,16.32-26.47,21.17-27,7.68-64.5-6-111.66-40.76C728.94,739.23,595.13,807,476,807m-16.24-27.22.5,0c130.27,7.62,295.13-85.2,296.78-86.14l7.7-4.38,7,5.38c55.9,42.77,83,44.54,94.24,41.76,7.26-1.79,9.91-6,10.48-7.13l.53-1.76.85-.82c5.83-8.61,7.75-17.17,5.86-26.18-4.33-20.62-27.89-39.38-36.61-44.87l-16.6-10.45,15.77-11.64c46.33-34.11,44-52,43.14-55l-1.2-1,.48-.26C879.79,562,869.3,554,856.65,552.82,827,550.09,790,584.64,778.3,598.18l-6.52,7.53-9.09-4.09C579,518.71,482.13,526.78,481.17,526.87l-.51,0c-179.41,10.76-196.1,109-197.26,118.16.16,35,11.44,63.79,33.55,85.59,50.47,49.79,141.4,49.19,142.33,49.1Z" transform="translate(-169.09 -169.09)" style="fill:#040000"/><path d="M754.89,476.74c-2.61-41.78-8.19-72.29-38.9-102-28.48-27.54-62.5-49.57-100-62.53-49-16.88-103.91-17.78-152.24.8-35.86,13.8-67.45,38-91.24,68.15-16,20.39-28.74,43.82-34.19,69.19S335.1,503,347.1,525.94l-.54.3a21.65,21.65,0,0,1,2.34,7c.27.47.5.9.77,1.3,1.14,1.74,2.34,3.41,3.34,5.21,2.87,5.21,5.35,10.63,8.39,15.77.33.64.67,1.24.94,1.87a26.1,26.1,0,0,1,8,7.09c29.38,36.77,75.43,46.39,115.24,27.31,4.24.67,8.49,1.37,12.7,2.27,19.05,4.11,37.4,11.16,56.48,15.24s39.64,4.95,57.42-3c10.19-4.58,19.35-12,30.38-13.7,0,0,39.57,5.41,46.09,1.17,0,0,24.4-4.51,39.14-15.67.4-.13.77-.27,1.14-.37l-.5-.13A31.1,31.1,0,0,0,735.6,570c13.9-15.74,18.72-36.36,19.85-57.72a313.59,313.59,0,0,0-.57-35.49M720,526.44c-6.75,25.94-29.11,38.84-57.25,31.72,3.34-15.11,7.62-29,9.23-43.28.87-7.72-1-17.11-5-23.56-2.57-4-14.07-7.45-17.08-5.18-5.68,4.31-9.62,12.5-11.63,19.79-4,14.61-3.41,31.12-9.89,44.32C615,577.47,588,579.55,562.07,577,531.49,574.1,507.49,560,498,527.87c-2.17-7.35-4.51-15.88-9.66-20.82-4.91-4.65-14.27-8.32-20.52-7-9.79,2-13.4,10.66-9.16,21,4.51,11,8.69,22.06,14,35.7-32-3.84-59.56-9.36-81.85-28.54C370.76,511,366.11,487.87,371.7,463c14.54-64.61,56.72-104.35,117.81-124,63.37-20.39,164.64,11.46,204.68,63.44,28.28,36.73,37.67,78.54,25.84,124" transform="translate(-169.09 -169.09)" style="fill:#040000"/><path d="M720,526.44c-6.75,25.94-29.11,38.84-57.25,31.72,3.34-15.11,7.62-29,9.23-43.28.87-7.72-1-17.11-5-23.56-2.57-4-14.07-7.45-17.08-5.18-5.68,4.31-9.62,12.5-11.63,19.79-4,14.61-3.41,31.12-9.89,44.32C615,577.47,588,579.55,562.07,577,531.49,574.1,507.49,560,498,527.87c-2.17-7.35-4.51-15.88-9.66-20.82-4.91-4.65-14.27-8.32-20.52-7-9.79,2-13.4,10.66-9.16,21,4.51,11,8.69,22.06,14,35.7-32-3.84-59.56-9.36-81.85-28.54C370.76,511,366.11,487.87,371.7,463c14.54-64.61,56.72-104.35,117.81-124,63.37-20.39,164.64,11.46,204.68,63.44,28.28,36.73,37.67,78.54,25.84,124" transform="translate(-169.09 -169.09)" style="fill:#fff"/><path d="M427.9,664.28a35.65,35.65,0,1,1-35.65-35.65,35.65,35.65,0,0,1,35.65,35.65" transform="translate(-169.09 -169.09)" style="fill:#040000"/><path d="M419.06,656.36a21.93,21.93,0,1,1-30.94-2.3,21.93,21.93,0,0,1,30.94,2.3" transform="translate(-169.09 -169.09)" style="fill:#fff"/><path d="M798.07,455.28a5,5,0,0,1-4.52-7.17c7.49-15.72-5-29.88-5.56-30.48a5,5,0,0,1,7.41-6.75c.72.79,17.62,19.67,7.2,41.54a5,5,0,0,1-4.53,2.86" transform="translate(-169.09 -169.09)" style="fill:#040000"/><path d="M815.47,455.27a5,5,0,0,1-4.52-7.17c11.49-24.13-7.59-45.64-8.41-46.54a5,5,0,0,1,7.41-6.75c1,1.1,24.47,27.31,10,57.61a5,5,0,0,1-4.53,2.86" transform="translate(-169.09 -169.09)" style="fill:#040000"/></g></svg>