<svg xmlns="http://www.w3.org/2000/svg" viewBox="0 0 232.11 232.18"><path d="M224.2,244.15H140.05c-2.57-1.17-3.59-3.47-4.5-5.93-3.21-8.62-6.39-17.24-9.69-25.82-2.21-5.73-2.3-5.78-8.6-5.79q-40.23,0-80.48,0a25.23,25.23,0,0,1-17-6.21A21.37,21.37,0,0,1,12,183.33q0-74.39,0-148.77c0-12.89,9.72-22.49,22.65-22.52,25.92-.07,51.84,0,77.76-.08,4.26,0,6.62,1.65,8,5.66q4.61,13,9,26.08c2,6,2.41,6.28,8.68,6.29q40.92,0,81.83,0c8.67,0,15.28,3.66,20.59,10.34,2.42,3,2.51,6.66,3.56,10.06V225.14C241.84,236.05,235.39,242.57,224.2,244.15Z" transform="translate(-12 -11.96)"/><path d="M22.19,108.63q0-34.59,0-69.18c0-12.08,5.21-17.24,17.36-17.25,22.15,0,44.31.09,66.46-.11,3.57,0,4.89,1.29,6,4.43q27.9,82,56,163.87c1.9,5.55,1.89,5.56-3.92,5.56q-61.93,0-123.85,0c-12.91,0-18-5.13-18-18.14Q22.17,143.22,22.19,108.63Z" transform="translate(-12 -11.96)" style="fill:#2195f2"/><path d="M154.22,233.73c5.38-6.18,10.67-12.26,16-18.33a23.71,23.71,0,0,1,3-3.36c8.46-6.53,9.41-14.24,4.48-23.47-2-3.79-2.74-8.26-4.37-12.29-.84-2.09-.58-3.37,1.29-4.5,2.82-1.71,4.58-6.2,7.46-5.89,2.46.26,4.54,4,6.8,6.26q6,5.85,12,11.68c2.54,2.46,5.38,3.79,8.23.73s1.09-5.49-1.29-7.81c-5.72-5.58-11.32-11.28-17.15-16.74-2-1.91-1.82-3-.2-5.14,7.79-10.18,14.56-21,18.39-33.37.59-1.9,1.51-3,3.82-2.79a42.59,42.59,0,0,0,7.23-.06c2.94-.2,4.94-1.86,4.94-4.83s-2-4.71-4.94-4.82c-5.27-.19-10.54-.18-15.81-.2-5,0-10-.08-14.93.12-2.42.09-3.22-.71-3-3.08.33-3.37-.65-6.26-4.55-6.4-4.13-.16-5.44,2.78-5.21,6.34.19,2.8-1.08,3.16-3.43,3.13-6.93-.07-13.87,0-20.8.15-1.18,0-1.85,0-2.3-1.36Q142,84.46,134,61.29c1.49-1.06,2.86-.6,4.12-.6q39.36-.06,78.72,0c12.29,0,17.53,5.29,17.53,17.69q0,69.24,0,138.47c0,12.46-5.1,17.58-17.5,17.59q-29.17,0-58.36,0C157.24,234.4,155.87,234.82,154.22,233.73Z" transform="translate(-12 -11.96)" style="fill:#ebeef0"/><path d="M181.94,150a54.12,54.12,0,0,1-10.13-13.24c-1.61-2.94-3.74-5-7.21-3-3.3,1.91-3,4.65-1.35,7.75a50.12,50.12,0,0,0,9.21,12.72c3.11,2.95,2.33,4.76-.49,6.88-.83.62-1.59,1.35-2.56,2.18-1.57-1.85-1.83-4.1-2.54-6.14-4-11.61-8-23.24-12-34.84-.79-2.27-1.32-3.7,2.26-3.64,12.93.21,25.87.15,38.81,0,3.1,0,3.55.75,2.4,3.6A119.35,119.35,0,0,1,181.94,150Z" transform="translate(-12 -11.96)" style="fill:#eaedef"/><path d="M144.43,230.1c-3-7.93-5.47-15-8.2-21.93-.91-2.34-.25-2.82,2-2.8,8.83.08,17.66,0,27.72,0Z" transform="translate(-12 -11.96)" style="fill:#1975d0"/><path d="M108.75,142.24c-.12,2.71-1,4.52-3.47,5-3,.65-4.9-.88-5.89-3.62-2.49-6.93-5.16-13.81-7.32-20.84-1.09-3.54-2.85-4.68-6.45-4.38a92.07,92.07,0,0,1-12.65,0c-2.57-.15-3.7.77-4.5,3.15-2.31,7-4.87,13.9-7.35,20.83-1.09,3-2.72,5.84-6.49,4.59-3.92-1.31-3.75-4.4-2.52-7.8Q63.5,107.62,74.7,76c1-2.74,2.14-5,5.52-5,3.18,0,4.22,2.34,5.12,4.87q11.25,31.65,22.55,63.28C108.29,140.25,108.53,141.43,108.75,142.24Z" transform="translate(-12 -11.96)"/><path d="M80,89.46c2.34,6.48,4.38,12.08,6.4,17.68.65,1.81-.43,2-1.83,2-3.6,0-7.2,0-11.5,0Z" transform="translate(-12 -11.96)" style="fill:#2393ec"/></svg>