<svg xmlns="http://www.w3.org/2000/svg" viewBox="0 0 236.13 183.69"><path d="M249,105.12l-11.72,2.69c7.14,15.79,6.35,30.36-4.7,44,.58.19,1.28.37,1.94.65,1.47.63,3.53.65,3.49,3,0,2-1.65,2.83-3.11,3.66-9,5-12.45,13.43-10.08,23.93.41,1.78,1.43,2,2.77,2.47,3.76,1.3,7.48,2.71,11.16,4.19,1.25.5,2.91,1.12,2.78,2.7-.15,1.74-2.12,1.57-3.33,1.86q-32.82,8-65.67,15.92c-19.2,4.64-38.42,9.23-57.6,14a10.74,10.74,0,0,1-6.23-.2q-41-13.39-82.09-26.69c-5.26-1.7-8.39-5.45-10.5-10.26a38.2,38.2,0,0,1,2.77-36c-.14-.2-.26-.52-.45-.58-1.84-.57-4.86-.23-5.07-2.22-.25-2.32,2.73-2.83,4.63-3.66s3.94-2,6-2.24c5.7-.61,6.86-4.08,6.32-8.93-.31-2.74-.39-5.53-.95-8.22-1-5-3.81-8.53-8.95-10.1-1.84-.56-3.88-1.72-3.67-4.16s2.6-2.29,4.22-2.89c2.14-.79,4.38-1.32,6.9-2.06-7.81-10.3-9.1-21.72-6.59-33.65,1.81-8.62,7.25-13,15.92-14.18q62-8.53,124-17.21a12.09,12.09,0,0,1,5.39.47Q204,52.71,241.33,64c1.65.5,4,.6,3.89,3.13-.07,2.16-2,3-3.58,3.83-8,4.16-12.61,15.87-9.6,24.18.63,1.76,2,1.71,3.19,2.13,4.76,1.63,9.71,2.83,13.77,6Z" transform="translate(-12.87 -40.85)"/><path d="M142.14,153.73c0-4.45-1.49-9.74.42-13.1s7.84-3.33,12-4.71q34.19-11.3,68.44-22.4c6.14-2,9.34-.34,10.66,6a34.27,34.27,0,0,1-1.21,19,10.28,10.28,0,0,1-7.38,6.86c-26.1,7.21-52.19,14.45-78.22,21.89-3.38,1-4.27.39-4.17-3s-.27-7.05-.44-10.57Z" transform="translate(-12.87 -40.85)" style="fill:#fefefe"/><path d="M112.72,197c-.79,5.73,1.52,12.21-1.71,14.58-2.71,2-8.47-1.7-12.86-2.91q-34.05-9.43-68.08-18.93a10.51,10.51,0,0,1-5.54-3c-4.53-5.22-5.78-21.09-2-26.84,1.81-2.74,4.25-3.73,7.53-2.65q40.11,13.14,80.25,26.15c2.1.67,2.51,1.72,2.45,3.64C112.64,190.68,112.72,194.37,112.72,197Z" transform="translate(-12.87 -40.85)" style="fill:#fefefe"/><path d="M119.7,109.76c-.18,3.68-.57,7.37-.46,11s-1.67,3-4,2.31q-24.5-6.94-49-13.75-14.58-4.08-29.17-8.15a10.62,10.62,0,0,1-4.53-2.1c-5.28-4.75-6.89-22.6-2.45-28.25A5.81,5.81,0,0,1,37,68.68Q77.34,81.86,117.69,95c1.81.58,2.35,1.49,2.29,3.31-.12,3.83,0,7.67,0,11.5Z" transform="translate(-12.87 -40.85)" style="fill:#fefefe"/><path d="M32,118.65c9,1.82,17.53,3.52,26,5.26,24.92,5.12,49.81,10.33,74.76,15.29,3.67.73,4.9,2,4.79,5.87-.2,6.59.27,13.21.67,19.8.16,2.62-.38,3.56-3.19,2.85q-49.25-12.39-98.53-24.59c-2.44-.61-2.41-1.72-2.13-3.53A39.28,39.28,0,0,0,32,118.65Z" transform="translate(-12.87 -40.85)" style="fill:#fefefe"/><path d="M230,74.38a38.19,38.19,0,0,0-2.4,20.6c.39,2.33,0,3.46-2.61,4.11-32.89,8.07-65.75,16.29-98.62,24.45a14.23,14.23,0,0,1-1.79.26c0-8.61.08-17.18,0-25.75,0-3,2.35-2.48,3.82-2.79,18.46-3.87,36.95-7.6,55.43-11.38C198.88,80.78,214,77.66,230,74.38Z" transform="translate(-12.87 -40.85)" style="fill:#fefefe"/><path d="M222.56,163.32a39.26,39.26,0,0,0-2.18,20.07c.34,2.68-.47,3.65-3.11,4.3q-48.4,11.91-96.75,24.07c-2.69.68-4.23.85-4-2.93.53-7,.57-14.11.67-21.18,0-2.09.38-3.48,2.8-3.74,7.69-.83,15-3.55,23-3.61,5.9-.05,11.59-3.54,17.63-4.75,19.82-4,39.62-8.14,59.43-12.21A14.48,14.48,0,0,1,222.56,163.32Z" transform="translate(-12.87 -40.85)" style="fill:#fefefe"/></svg>