<svg xmlns="http://www.w3.org/2000/svg" viewBox="0 0 225.18 198.39"><path d="M25.15,164.87V57.65a22,22,0,0,1,3.61-10.86c5.45-8,13.14-11.92,22.65-12.18,8.33-.23,16.69,0,25,0q52.61,0,105.2,0c10.34,0,18.3,4.62,23.65,13.48A24.15,24.15,0,0,1,208.67,60c1,28.61.15,57.23.41,85.85a9.93,9.93,0,0,1-.18,2.61,1.79,1.79,0,0,1-.34.62c-1.26.26-1.05-.78-1.06-1.38a4.52,4.52,0,0,0-1.59-3.24q-19.82-19.78-39.59-39.63c-1.33-1.34-2.09-1.18-3.34.07q-22.78,22.89-45.64,45.71c-1.81,1.81-3.33,3.89-5.21,5.64s-2.34,1.95-4.28,0q-9.1-9.07-18.18-18.17L73.2,121.59c-1.9-1.89-1.91-1.89-3.79,0q-20.82,20.82-41.65,41.62C27,163.91,26.51,165.08,25.15,164.87Z" transform="translate(-25.15 -34.49)" style="fill:#4a566e"/><path d="M25.15,164.87c.83-.24,1.27-1,1.82-1.53Q48.35,142,69.66,120.61c1.32-1.33,2-1.46,3.41,0,11.69,11.81,23.49,23.51,35.19,35.32,1.34,1.35,2,1.43,3.4,0,17.07-17.3,34.23-34.5,51.3-51.8,1.39-1.4,2.09-1.44,3.51,0q19.6,19.85,39.39,39.5c1.58,1.58,2.51,3.13,2.2,5.35-.49.73-1.27.63-2,.67a40.19,40.19,0,0,0-26.77,11.71c-16.68,16.59-16.41,42.1-1,58.16.7.72,2.34,1.35,1.07,2.9a8.5,8.5,0,0,1-3,.29q-62.4,0-124.8,0c-10.61,0-18.62-4.78-23.95-14.06-1.63-2.83-2-5.91-2.44-9Z" transform="translate(-25.15 -34.49)" style="fill:#00b493"/><path d="M249.43,199.23a38.44,38.44,0,0,1-3.54,10.07c-12,24.63-44.19,31.35-64.94,13.54-.39-.33-.81-.61-1.22-.92A46.58,46.58,0,0,1,168.32,204c-8.27-24.33,8.37-51.19,33.85-54.58,2-.26,3.93-.3,5.89-.49a.33.33,0,0,0,.4,0,42.15,42.15,0,0,1,41.19,35.58c.06.35.13.7.22,1,0,0,.46,5.13.46,5.63A31.75,31.75,0,0,1,249.43,199.23Z" transform="translate(-25.15 -34.49)" style="fill:#fefefe"/><path d="M125,97.12a16.3,16.3,0,0,1-16.31,16.29A16.54,16.54,0,0,1,92.46,97.18a16.34,16.34,0,0,1,16.3-16.32A16.15,16.15,0,0,1,125,97.12Z" transform="translate(-25.15 -34.49)" style="fill:#fecb03"/><path d="M202.1,185.93c-1.37,1.37-2.35,2.42-3.4,3.4-2.68,2.52-6.22,2.54-8.62.07a5.94,5.94,0,0,1,.18-8.48q6.69-7,13.47-13.85a6.07,6.07,0,0,1,8.82,0c4.53,4.57,9.07,9.14,13.53,13.78,3.44,3.59,1.93,9.07-2.75,10.19a5.92,5.92,0,0,1-5.78-1.86c-.92-.93-1.8-1.9-2.75-2.89-.82.77-.5,1.53-.5,2.19,0,7.47,0,14.93-.06,22.4-.06,4.72-4.32,7.54-8.5,5.74-2.58-1.1-3.64-3.22-3.64-6,0-5.41,0-10.83,0-16.24Z" transform="translate(-25.15 -34.49)" style="fill:#00b493"/></svg>