<?xml version="1.0" encoding="utf-8"?>
<!-- Generator: Adobe Illustrator 25.4.1, SVG Export Plug-In . SVG Version: 6.00 Build 0)  -->
<svg version="1.1" id="图层_1" xmlns="http://www.w3.org/2000/svg" xmlns:xlink="http://www.w3.org/1999/xlink" x="0px" y="0px"
	 viewBox="0 0 87.7 87.7" style="enable-background:new 0 0 87.7 87.7;" xml:space="preserve">
<path d="M2.4,85.3V2.4h82.7v82.7H2.4V85.3z M17.3,7.3l63.3,64c0-6.2,0.1-11.9,0-17.6c-0.1-1.2-0.6-2.4-1.4-3.2
	C65.3,36.6,51.4,22.8,37.7,9.1c-0.8-1-1.8-1.5-3.1-1.8C28.7,7.3,22.8,7.3,17.3,7.3z M71.7,80.4L7.3,16.3c0,6.4,0,12.1,0,17.9
	c0.1,0.8,0.6,1.7,1.2,2.4c14,14.2,28,28.3,42.1,42.3c0.6,0.7,1.4,1.2,2.4,1.4C58.9,80.4,64.9,80.4,71.7,80.4z M34.6,80.4L7.3,53.2
	c0,5.3,0.3,10-0.1,14.7c-0.4,2.9,0.8,5.7,3.2,7.4c2.2,1.7,4.2,4.7,6.5,5C22.3,81,28,80.4,34.6,80.4L34.6,80.4z M80.4,34.6
	c0-6.4,0-11.7,0-16.8c0-2.2-7.1-10.4-9.3-10.4c-5.7-0.1-11.4,0-17.9,0L80.4,34.6z"/>
</svg>
