<svg xmlns="http://www.w3.org/2000/svg" viewBox="0 0 216.41 164.51"><path d="M131.71,166.74l14.39-13.39c2.11-2,4.22-3.93,6.37-5.85,1.25-1.11,2.74-1.53,3.9-.06s.43,2.74-.82,3.89c-7.62,7-15.2,14-22.82,21-2.84,2.61-5,2.61-7.79,0q-11.2-10.32-22.39-20.65c-1.39-1.27-2.92-2.66-1.16-4.46,1.52-1.55,3-.45,4.37.81q8.8,8.28,17.71,16.47c.69.63,1.24,1.9,2.36,1.4,1-.42.48-1.61.48-2.46q0-31.84,0-63.69c0-14.45-8.65-26.34-22.6-30.07-13.8-3.69-29.84.67-36.43,14.74-2.83,6-3.16,12.46-3.13,19,0,6.68,0,6.72,6.64,6.81,1.9,0,3.6.35,3.56,2.57s-1.79,2.3-3.51,2.24c-8.31-.25-16.51.35-24.27,3.71-12.38,5.35-18.83,15.61-22.12,28s-2.09,25,4.39,36.16c7.63,13.19,19.69,20.08,35,20.14,41.26.18,82.52,0,123.78.09,24.82.05,43.39-21.13,41.72-47-.63-9.81-2.92-19.13-9.55-26.77a41.9,41.9,0,0,0-22.73-14c-3.78-.85-4.1-.6-4.1,3.22,0,1.3,0,2.59,0,3.89,0,1.57-.3,2.83-2.22,2.8-1.73,0-2.48-1.12-2.55-2.7s-.1-3.39,0-5.08a70.45,70.45,0,0,0-6.39-33.05c-8.23-17.87-21.33-30-40.89-34.34-10.28-2.28-20.65-3-31.07-.84-1.46.3-2.94.3-3.36-1.49s.53-2.8,2.33-3.09c23.81-3.74,45.75-.1,63.41,17.64a70.28,70.28,0,0,1,19.94,40.87c.9,6.49,1,6.07,7.27,7.92,15.91,4.64,27.47,14.3,32.25,30.62,4,13.81,3.94,27.65-2.79,40.69-8.49,16.42-22.14,25.27-40.78,25.34q-61.89.24-123.79,0c-22.78-.05-38.73-13.41-44.39-35.22-4.63-17.87-1-34.14,11-48.27,6.62-7.78,15.5-11.62,25.37-13.21,2.46-.4,3.12-1.27,3.09-3.61C59.31,100.28,59,93,61.52,86,66.23,72.79,75.8,66,89.47,64.18c10.35-1.34,19.81.61,28.05,7.14,8.88,7,13.43,16.28,13.42,27.7q0,31.7,0,63.4C131,163.69,130.66,165,131.71,166.74Z" transform="translate(-17.98 -43.41)" style="fill:#b20000"/></svg>