<svg xmlns="http://www.w3.org/2000/svg" viewBox="0 0 227.69 227.67"><path d="M128.14,227.8c13.07-.24,25.8-2.33,37.81-7.59,32.68-14.34,52.88-38.94,60-74,3.18-15.59,2-31-2.33-46.3-1.59-5.57,2-10.15,7.47-9.59a6.68,6.68,0,0,1,6,5.15,110.86,110.86,0,0,1,4.41,23c.05.56-.17,1.21.43,1.63V137c-.51,3.71-.5,7.47-1.18,11.18a115.23,115.23,0,0,1-69.08,85.67c-11.28,4.65-22.94,7.91-35.3,7.84-1.41.13-2.86-.29-4.25.22h-4c-.13-.17-.33-.33-.36-.54a51.59,51.59,0,0,1,0-13.08C127.79,228.11,128,228,128.14,227.8Z" transform="translate(-14.31 -14.32)" style="fill:#607d8a"/><path d="M136.66,241.57a110,110,0,0,0,62.2-24.4q34.84-28,41.87-72.37c.41-2.58.24-5.27,1.23-7.76q0,51.57,0,103.14c0,1.52-.3,1.82-1.82,1.82q-51.8-.09-103.58-.05c-.15-.11-.2-.2-.13-.28A.32.32,0,0,1,136.66,241.57Z" transform="translate(-14.31 -14.32)" style="fill:#fefefe"/><path d="M128.14,227.8q0,7.08,0,14.15h-8.89c-2.73-.92-5.61-.83-8.41-1.27A111.4,111.4,0,0,1,54.7,214.82c-1.43-1.21-2.14-1.16-3.32.17-1.82,2-3.86,3.89-5.78,5.84a6.91,6.91,0,0,1-7.55,1.75,6.39,6.39,0,0,1-4.71-6.1c-.16-6.28-.14-12.58-.15-18.87A36.87,36.87,0,0,1,33.4,191a6.88,6.88,0,0,1,6.94-5.91c7.92,0,15.84,0,23.76,0a7.13,7.13,0,0,1,5.29,12c-1.61,1.73-3.28,3.42-5,5-.94.88-1.15,1.34,0,2.33a98.41,98.41,0,0,0,43.29,21.17A128.78,128.78,0,0,0,128.14,227.8Z" transform="translate(-14.31 -14.32)" style="fill:#546d79"/><path d="M136.66,241.57a1.26,1.26,0,0,0-.06.38h-4.45C133.6,241.15,135.15,241.57,136.66,241.57Z" transform="translate(-14.31 -14.32)" style="fill:#9dafb7"/><path d="M160.54,168.46c-1.2,1.09-2.36,2.24-3.61,3.28a16.4,16.4,0,0,1-22.18-.8c-4.67-4.49-3.37-4.34-9.3-1.46-3.18,1.54-6.29,3.18-10,3.23a16.32,16.32,0,0,1-12-4.67q-4.87-4.71-9.58-9.59c-.93-1-1.48-1.1-2.44,0-1.74,1.92-3.62,3.71-5.49,5.51a7.13,7.13,0,0,1-10.15.17A7,7,0,0,1,75.61,154c2.18-2.32,4.49-4.51,6.75-6.76,1.39-2.29,3.54-3.88,5.37-5.76a35.12,35.12,0,0,1,4.91-4.69L98,131.28c0-.83.66-1.29,1.17-1.8q7.24-7.27,14.52-14.53a4.06,4.06,0,0,1,2-1.37,2.81,2.81,0,0,1,2.27,1.19q23.51,23.47,47,47a3.57,3.57,0,0,1,.8,1.06C165,165.64,162.85,167.11,160.54,168.46Z" transform="translate(-14.31 -14.32)" style="fill:#00a3b8"/><path d="M128.14,28.5c-11.51.35-22.83,1.91-33.63,6C64.93,45.77,44.65,66.3,34,96.14a94.54,94.54,0,0,0-5.32,34.62,101.93,101.93,0,0,0,4,25.53c1.26,4.37-.66,8.38-4.46,9.54-4.13,1.25-8.13-1-9.33-5.58C7.91,118.47,16.57,81.37,46,49.58c16.51-17.84,37.17-28.66,61-33.34a86.29,86.29,0,0,1,21.16-1.82A28.68,28.68,0,0,1,128.14,28.5Z" transform="translate(-14.31 -14.32)" style="fill:#546d79"/><path d="M165.59,162.91c-.67-.59-1.36-1.14-2-1.76q-22.84-22.85-45.7-45.68c-.61-.61-1.07-1.47-2.09-1.54a.36.36,0,0,1-.22-.49c5.42-5.25,10.69-10.66,16-16a7,7,0,0,1,2.22-1.8l5.4-5.34c1.1-2,3-3.41,4.57-5,1.81-1.8,3.37-3.88,5.61-5.22,2.21-2.19,4.39-4.4,6.63-6.55,3.17-3,7.48-3.08,10.32-.2s2.66,7.22-.35,10.33c-1.8,1.86-3.61,3.72-5.5,5.48-.89.83-.77,1.32,0,2.1q4.63,4.47,9.17,9c5.61,5.64,6.81,12.76,3.4,19.94-.89,1.87-1.76,3.74-2.75,5.56a3.29,3.29,0,0,0,.8,4.53c2.91,2.61,5.32,5.58,6.22,9.49a16.35,16.35,0,0,1-4.29,15.75L170.84,158a22.53,22.53,0,0,1-4.65,4.9A.83.83,0,0,1,165.59,162.91Z" transform="translate(-14.31 -14.32)" style="fill:#00bbd3"/><path d="M128.14,28.5V14.42a111.73,111.73,0,0,1,73.49,27.15c1.45,1.26,2.17,1.06,3.33-.22,1.83-2,3.84-3.91,5.79-5.83a6.78,6.78,0,0,1,7.75-1.63,6.66,6.66,0,0,1,4.43,6.75c0,7.78,0,15.55,0,23.33a7,7,0,0,1-7.28,7.26c-7.77,0-15.55,0-23.32,0a6.8,6.8,0,0,1-6.66-4.31,6.7,6.7,0,0,1,1.47-7.78c1.63-1.71,3.31-3.39,5-5,.76-.74,1-1.19,0-2.06A98.14,98.14,0,0,0,144.26,29.9,116.14,116.14,0,0,0,128.14,28.5Z" transform="translate(-14.31 -14.32)" style="fill:#607d8a"/><path d="M133.86,95.67c-5.92,6.08-11.79,12.22-18.07,17.93a3.52,3.52,0,0,1-1.61-1.12q-8.5-8.51-17-17a3,3,0,0,1-1.09-1.61c3.38-3.42,6.68-6.91,10.15-10.22,3.94-3.76,11.7-3.59,15.62.22S129.86,91.73,133.86,95.67Z" transform="translate(-14.31 -14.32)" style="fill:#ced7db"/><path d="M96.09,93.86c6.73,6.41,13.35,12.93,19.7,19.74,0,.11,0,.22,0,.33q-7.66,7.56-15.34,15.11c-.78.78-1.62,1.5-2.44,2.24a124.41,124.41,0,0,1-12.72-13,11.41,11.41,0,0,1,.41-14.15C89,100.61,92.63,97.29,96.09,93.86Z" transform="translate(-14.31 -14.32)" style="fill:#b3bbbf"/><path d="M92.64,136.74a96.61,96.61,0,0,1-10.28,10.45L76,140.7c-3.18-3.25-3.34-7.53-.4-10.47s7.32-2.82,10.5.21C88.31,132.53,90.47,134.64,92.64,136.74Z" transform="translate(-14.31 -14.32)" style="fill:#b3bbbf"/><path d="M149.44,80.11a129.17,129.17,0,0,1-10.18,10.22c-2.26-2.33-4.55-4.63-6.76-7a7.56,7.56,0,0,1-.56-9.35c1.64-2.29,5.56-3.31,8.39-2.19a6.81,6.81,0,0,1,2.3,1.67C144.89,75.69,147.17,77.9,149.44,80.11Z" transform="translate(-14.31 -14.32)" style="fill:#ced7db"/><path d="M165.59,162.91a2,2,0,0,1,.35,0c6.33,6,12.38,12.28,18.55,18.44.5.5,1.1,1.07.55,1.92-3.76,2.7-7,2.47-10.3-.76q-7.11-7-14.2-14C162,166.42,164.26,165.08,165.59,162.91Z" transform="translate(-14.31 -14.32)" style="fill:#b3bbbf"/><path d="M185,183.26c0-1-.86-1.51-1.46-2.11q-8.06-8.1-16.13-16.16c-.61-.61-1.45-1.08-1.51-2.09l4.9-4.91c.06.93.81,1.38,1.37,1.94,4.13,4.15,8.13,8.44,12.45,12.37A7.39,7.39,0,0,1,185,183.26Z" transform="translate(-14.31 -14.32)" style="fill:#ced7db"/></svg>