<svg xmlns="http://www.w3.org/2000/svg" viewBox="0 0 220.2 220.22"><path d="M238.33,101.89a8.35,8.35,0,0,1-3,3.38c-2.19.93-4.4.29-6.55-.09-8-1.43-15.31-4.73-22.36-8.62a118.46,118.46,0,0,1-26.51-19.64,118,118,0,0,1-19-25.1c-4.34-7.56-8-15.41-9.64-24-.43-2.21-1.05-4.49-.13-6.76a6.08,6.08,0,0,1,6.14-3,55.06,55.06,0,0,1,25.21,7.73,137.87,137.87,0,0,1,48.14,48.09,56.27,56.27,0,0,1,7.32,20.72c.06.34,0,.73.43.88Z" transform="translate(-18.13 -18)" style="fill:#f34336"/><path d="M91.67,189.16c-3.73,1.74-6.73,4.55-10,6.92-13.93,10.1-27.75,20.35-41.61,30.53q-7.94,5.82-15.89,11.61H21.58c-4-2.24-4.46-4.69-1.66-8.5Q39,203.67,58.12,177.6c2.61-3.57,5.25-7.12,7.83-10.7a4.76,4.76,0,0,0,1.24-2.22c2,.66,3,2.52,4.26,3.93,4.64,5,9.42,9.91,14.53,14.47,1.81,1.61,3.38,3.48,5.31,5A.91.91,0,0,1,91.67,189.16Z" transform="translate(-18.13 -18)" style="fill:#ced7db"/><path d="M91.67,189.16c-6.07-5.62-12.1-11.28-17.8-17.28-2.25-2.37-4.45-4.8-6.68-7.2a204.56,204.56,0,0,1-17.11-22.83,51.87,51.87,0,0,1-7.54-17.64c-1.71-8.41.65-15.28,7.61-20.4q24-17.61,51.44-6.19a30.39,30.39,0,0,1,3,1.68c.26.87-.37,1.37-.87,1.82-5.39,4.87-5.31,10.72-3.08,16.95a49.73,49.73,0,0,0,9.26,15.14,93.55,93.55,0,0,0,18.49,17.22c4.7,3.22,9.62,5.93,15.45,6.55a12.54,12.54,0,0,0,10.44-3.37c.86-.8,1.4-2.3,3.06-1.83,4.13,7.07,5.52,14.88,5.57,22.89.08,11-2.61,21.26-9.29,30.24-3.9,5.25-8.54,9.25-15.52,9.46a31.43,31.43,0,0,1-11.75-2.12c-6.79-2.47-12.83-6.29-18.71-10.39C102,198,96.86,193.56,91.67,189.16Z" transform="translate(-18.13 -18)" style="fill:#d22f2f"/><path d="M157.33,151.78a2.37,2.37,0,0,0-1.55,1.06c-5.05,5.81-11.24,5.7-17.79,3.35-6.85-2.45-12.59-6.75-17.87-11.56-6.45-5.88-12.44-12.23-16.91-19.83-2.37-4-4.24-8.32-4.57-13a12.3,12.3,0,0,1,3.32-9.65c.88-.93,1.75-1.88,2.62-2.83l28.9-28.77c1.12-1.11,2.22-2.24,3.35-3.34a2.45,2.45,0,0,0,1-1.81c.7,0,.71.61.8,1.07,2,9.86,6.79,18.38,13.17,26,5.1,6.11,10.56,11.9,17.27,16.33a60.7,60.7,0,0,0,18.37,8.2c1,.25,2.18.25,2.84,1.29l-23.46,23.6c-2.73,2.74-5.48,5.46-8.2,8.21C158.12,150.6,157.47,151,157.33,151.78Z" transform="translate(-18.13 -18)" style="fill:#f34336"/><path d="M190.27,118.29a63.84,63.84,0,0,1-22.42-9.65c-6.28-4.35-11.48-9.85-16.36-15.63a61.88,61.88,0,0,1-12.36-22.29c-.52-1.76-.88-3.56-1.31-5.34-3-17,1.71-31.7,13.27-44.34a45.1,45.1,0,0,0,1.78,11.42,81.68,81.68,0,0,0,7.32,17.12,127.22,127.22,0,0,0,11.92,17.76,109.43,109.43,0,0,0,17.57,17.45,120.1,120.1,0,0,0,24.2,14.95,62.11,62.11,0,0,0,19,5.57c.83.09,1.61-.88,2.42,0-7.37,7.21-16.26,11.42-26.31,13.4A48.58,48.58,0,0,1,190.27,118.29Z" transform="translate(-18.13 -18)" style="fill:#d22f2f"/></svg>