<svg xmlns="http://www.w3.org/2000/svg" viewBox="0 0 227.51 226.67"><path d="M160.41,108.27" transform="translate(-13.15 -12.04)" style="fill:#76cb5b"/><path d="M49.78,194.78c-.68-1.09-2.81-4.91-5-6.71a63.47,63.47,0,0,1-9.63-28,147.42,147.42,0,0,1,.11-15.6c0-5.58,1.31-11,2.76-16.29,5.42-19.91,15.56-37.31,28.65-53.09A181.58,181.58,0,0,1,114.42,34.5a173.08,173.08,0,0,1,51.83-20.36c7.23-1.56,14.57-1.79,21.91-2,1.23-.1,20.9-.12,26.05.23a180,180,0,0,1,19.95,2.79,4.29,4.29,0,0,1,3.18,3.09,90.12,90.12,0,0,1,2.84,19.86c.09,2.48.4,5,.4,7.44,0,1.89,0,3.93,0,4.43,0,.07-.14,2.83-.14,2.9-.9,9.91-1.57,17.31-3.06,28-4.05,17.48-7.4,31.16-15,45.36-8.47,15.12-16.48,28.72-27.42,40.52-15.9,17.11-34.73,32.45-55.54,41.28-6.2,2.09-8.59,3.3-14.65,5.15-4.18,1.32-14,3-14.43,3.11-10.21,1-18,1.26-27.86-1.76-2.76-.84-10-3.47-12.58-4.67C68.1,209,56.69,203,58.08,201.5" transform="translate(-13.15 -12.04)" style="fill:#76cb5b"/><path d="M79.36,133.42a13,13,0,0,0-.73-2.54,4,4,0,0,0-4.38-2.58,4.12,4.12,0,0,0-3.08,4.3,46.67,46.67,0,0,0,1.18,6.52c1.92,8.87,3.72,17.75,5.64,26.61" transform="translate(-13.15 -12.04)" style="fill:#76cb5b"/><path d="M108.67,195.92l14.81,15c.67.68,1.31,1.38,2,2.07-18.49,5.4-36.81,6.17-54.79-2.06a52.08,52.08,0,0,1-12.11-7.63c-1.28-1.09-1.9-.89-3,.21Q39.2,220,22.75,236.34c-1.57,1.57-3.25,2.81-5.65,2.21a5,5,0,0,1-3.1-7.62,13.25,13.25,0,0,1,1.86-2.17Q32,212.56,48.25,196.42c1.27-1.26,1.27-1.92.16-3.33-11.28-14.3-14.94-30.71-13.12-48.58.69.37.69,1.05.83,1.7a62.64,62.64,0,0,0,16.57,31.44c1.89,2,4.06,3.63,6.1,5.44,1,.9,1.9.8,2.87-.18,4.51-4.56,9-9.12,13.62-13.59,1.14-1.11.84-2.21.58-3.44-2.23-10.6-4.32-21.23-6.74-31.78-.64-2.8,1.36-6.21,3.9-6.74,2.73-.58,5.32,1.14,6.06,4.44,1.84,8.19,3.52,16.42,5.27,24.64.18.85.4,1.69.59,2.52.93,0,1.26-.63,1.7-1.07,7.57-7.54,15.11-15.13,22.71-22.65a3.55,3.55,0,0,0,1.14-3.7c-2.2-10.15-4.29-20.33-6.4-30.5a15.49,15.49,0,0,1-.32-2.63c-.1-2.93,1.49-5.17,3.9-5.6a5,5,0,0,1,5.92,4.1c1,3.92,1.73,7.91,2.57,11.88,1,4.61,2,9.21,2.91,13.84.41,2.09,1.06,1.82,2.29.59q11.29-11.39,22.68-22.68a3.4,3.4,0,0,0,1-3.54c-2.21-10.3-4.32-20.62-6.47-30.94a7.73,7.73,0,0,1,0-4.78,4.65,4.65,0,0,1,4.68-3.05A4.75,4.75,0,0,1,148,61.94c1,4,1.84,8,2.71,12.07,1,4.68,2,9.38,3,14.06.12.55,0,1.33.61,1.56s1.15-.51,1.59-.95Q168.23,76.35,180.57,64a9.07,9.07,0,0,1,3-2.24,5,5,0,0,1,6.56,6.59,9.21,9.21,0,0,1-2.25,3q-12.21,12.19-24.4,24.41c-.53.54-1.57,1-1.21,1.9.28.74,1.29.56,2,.7,8,1.71,16,3.37,24,5a7.82,7.82,0,0,1,3.61,1.55,4.64,4.64,0,0,1,1.51,5.39,4.54,4.54,0,0,1-4.52,3.27c-3.28,0-6.39-1-9.56-1.65q-12.34-2.5-24.66-5.17a3.05,3.05,0,0,0-3.16.92q-11.39,11.45-22.84,22.84c-1.27,1.26-1.43,1.86.61,2.27,8.09,1.65,16.15,3.39,24.22,5.1a14,14,0,0,1,1.93.49,5.11,5.11,0,0,1,3.55,6.25,5.35,5.35,0,0,1-6.31,3.55c-10.39-2.16-20.78-4.29-31.14-6.59a5.23,5.23,0,0,0-5.62,1.62c-7.09,7.31-14.35,14.44-21.54,21.64-.55.55-1.08,1.14-1.9,2,5.49,1.17,10.57,2.26,15.66,3.33,3.68.78,7.37,1.5,11,2.31,1.72.39,3.5.77,4.53,2.46s1.41,3.6.18,5.41a5.1,5.1,0,0,1-5.52,2.4q-12.43-2.56-24.88-5.2c-2.74-.57-5.49-1.08-8.21-1.75a2.61,2.61,0,0,0-2.75.85q-5.74,5.82-11.57,11.57c-1.15,1.14-1.22,1.81.43,2.52a68.45,68.45,0,0,0,23.5,5.64A90.13,90.13,0,0,0,108.67,195.92Z" transform="translate(-13.15 -12.04)" style="fill:#599844"/><path d="M239.36,64.93c-2.18,29.28-11.91,56-28,80.4a175.53,175.53,0,0,1-54.44,53.45A121.29,121.29,0,0,1,125.44,213a5.56,5.56,0,0,1-3-1.63c-4.19-4.22-8.43-8.39-12.59-12.65-.71-.72-1.89-1.37-1.15-2.76a97.61,97.61,0,0,0,27.9-7.28,147,147,0,0,0,36.37-21.56,182.27,182.27,0,0,0,35.24-37.55c15.36-21.94,29.32-70,29.88-73.65.49-3.15,1.9-6.46,2.53-9.55a43.77,43.77,0,0,1-.24,7.67c-.23,2.88-.37,3.56-.55,6C239.67,61.82,239.53,63.18,239.36,64.93Z" transform="translate(-13.15 -12.04)" style="fill:#5ea349"/></svg>