<svg xmlns="http://www.w3.org/2000/svg" viewBox="0 0 241.11 234"><path d="M48.55,71.46c1.87-2.06,3.45-1.09,5.15.37Q78.26,92.92,102.87,114c1.27,1.09,2.56,2.17,4,3.43,1.15-3,.93-5-1.66-7.19C84.67,93.09,64.21,75.84,43.68,58.66c-1.69-1.41-2.94-2.78-1.51-5,2.64-1.77,4.41.2,6.14,1.61,5.25,4.29,10.41,8.68,15.65,13,13.84,11.35,27.47,22.94,41.31,34.29,3.07,2.51,3.19,2.48,4.61-1.17a43.41,43.41,0,0,1,19.41-22.73,8.36,8.36,0,0,0,4.44-6.45c2.81-17,6-34,8.89-51,.65-3.86,0-4.43-3.79-3.21-5.64,1.84-11.25,3.79-16.9,5.6a5,5,0,0,0-3.76,4.2c-2.12,10.69-4.55,21.33-6.64,32-.25,1.25-.54,2.48-.87,3.71-1.26,4.56-4.83,6.15-9,3.85a81.53,81.53,0,0,1-8.82-6.22C85.2,55.5,77.51,50,70,44.31a6.29,6.29,0,0,0-6.75-1.05c-4.25,1.66-8.46,3.41-12.77,4.86-3.06,1-4.46,0-4.63-2.88-.05-1.58,1-2.16,2.27-2.64,5.63-2.11,11.24-4.28,16.88-6.39a7,7,0,0,1,7.11,1.16c9.55,7.2,19.16,14.31,28.78,21.42,3.19,2.36,4.21,2,5-1.87,2.27-11.4,4.6-22.8,6.72-34.23a4.54,4.54,0,0,1,3.64-4.09c8.38-2.48,16.89-4.57,25.11-7.6h4.45c4,1.59,5.19,3.73,4.39,8.22C147.4,35.08,144.83,51,142,66.83c-.21,1.14-.43,2.29-.56,3.45-.08.7-.43,1.56.44,2,.71.35,1.44-.05,2.11-.37,1.44-.7,1.65-2.11,1.94-3.45,2.71-12.21,5.47-24.4,7.88-36.66,1.08-5.45,3.75-8.61,9-10.19,7.71-2.3,15.29-5.05,22.94-7.56,2.62-.86,5.2-1.11,7.6.62,2.7,1.94,3.58,4.5,2.9,7.79-2.34,11.41-4.3,22.9-6.64,34.32-.53,2.59-.89,5.22-1.43,7.81-.4,1.92.23,2.67,2.21,2.83a83.83,83.83,0,0,1,15.34,2.54c3.94,1.07,4.94,2.39,4.72,5.87-1.55,2.89-4,2.93-6.85,2.41-8.75-1.62-17.55-3.15-26.47-2.7-11.61.59-23.28,1.07-34.34,5.33-13.29,5.11-23.11,13.54-26.72,27.9-2.54,9-2.55,9.06,6.43,10.47,12,1.88,23.25,5.45,33,13,1.68,1.3,2.37.6,2.89-1.06.73-2.32,1.57-4.6,2.49-6.85q5.4-13.92,10.63-27.88c.48-1.29,1-2.57,1.58-3.81,1-2.06,2.46-3.46,4.88-3.43s3.88,1.45,4.74,3.59c2.38,5.89,4.51,11.87,6.74,17.81,3.39,9,6.93,18,10.19,27,.22.6.49,1.18.65,1.79.55,2,.28,3.89-1.83,4.84s-3.72.06-5-1.64a16.57,16.57,0,0,1-2.34-5.53c-.85-3-2.66-3.94-5.64-3.77-3.48.19-7,0-10.47.07-1.79-.06-3.59-.06-5.39,0-4.64.08-7.33,4.74-4.71,8.67,4.82,7.23,7.25,15.19,8.27,23.71.47,3.89.83,4.08,4.83,4a29.51,29.51,0,0,0,4.41-.53c7.46-1.09,13.34,1.3,18.81,6.74a40.52,40.52,0,0,0,26.81,11.72c4.24.25,5.53-1.52,3.64-5.39a111.8,111.8,0,0,1-5.81-14.43c-1.66-5.1-.91-9.51,3.12-13.35,8.45-8.07,12-18.4,12.41-29.73a55.43,55.43,0,0,0-2.35-17.88c-3-9.72-9.1-16.83-17.76-21.93-2.72-1.6-5.43-3.25-4.09-7.18,2.19-2.28,3.89-2.74,6.71-1.2,10.06,5.47,17.66,13.23,22,24a34.94,34.94,0,0,1,2.53,15.16c0,.08-.53,14.42-.77,16.34-1.32,10.55-5.52,19.67-13.25,27-2.11,2-2.66,3.94-1.66,6.76a119.81,119.81,0,0,0,5.74,14c1.9,3.77,2.29,7.51-.24,11.09s-6.24,4.36-10.4,4a52.81,52.81,0,0,1-33.54-15.44c-2.47-2.43-4.95-3.59-8.44-3.22a96.76,96.76,0,0,1-10.78.28c-1.67,0-2.49.39-2.64,2.23-1.87,23.38-16.53,37.76-38.58,43.9-13.3,3.7-26.88,4.45-40.57,3.63a8.56,8.56,0,0,0-7.1,2.54c-10.14,9.9-22.1,15.76-36.5,16.1a9.31,9.31,0,0,1-5.67-1.64c-3-2.05-3.23-3.45-1.24-6.56,1.43-1.34,3-.94,4.39-.12a9.22,9.22,0,0,0,6.16.95c9.8-1.39,18.64-5.07,25.66-12.15,4.39-4.43,9.19-6.82,15.54-6.23a102.9,102.9,0,0,0,11.11,0c13.46-.26,26.53-2.16,38.68-8.55,13.34-7,19.6-18.36,20.94-33a59.7,59.7,0,0,0-.38-13.89c-2.26-15.85-11.42-26.17-26-32.21-7.13-3-14.6-4.34-22.18-5.22a135.51,135.51,0,0,0-37.62,1.14c-1.68.27-3.31.7-5,1.09-12.17,3.13-22.69,8.69-29.65,19.71a36.23,36.23,0,0,0-4.49,11.48c-2.47,10.78-2.1,21.43,2.1,31.82,1.81,4.49,4.16,8.67,7.79,11.85,4.85,4.24,6.14,9.05,3.82,15.07-1.13,3-2.08,6-3.49,8.86-1.32,2.67-3.07,3.11-5.61,1.74-1.55-1.45-1.46-3-.72-4.91,1.27-3.24,2.26-6.59,3.5-9.84a3.42,3.42,0,0,0-1-4.25C32.3,197.58,30,181.08,31.69,163.48c1.61-16.42,10.43-28.23,25-36.41-1.71-1.5-3.3-2.92-4.92-4.3L10.24,87.24c-4.4-3.77-3.49-9.34,1.9-11.51,9.79-3.94,19.6-7.82,29.41-11.72,1.42-.57,2.89-1,4.05.44a2.63,2.63,0,0,1-.36,3.94c-1.37,1.85-3.58,2.15-5.52,2.84-6.89,2.43-13.79,4.86-20.57,7.57-6.11,2.45-6.89,3.78-1.42,8.27Q39,104.49,60,122.15a4.46,4.46,0,0,0,4.66,1c5.24-1.67,10.51-3.38,16-4.06s10.83-1.79,16.88-1.4c-8.47-7.48-16.63-14.5-24.75-21.56-7.51-6.53-15.11-13-22.45-19.66C49,75.24,46.93,73.91,48.55,71.46Z" transform="translate(-7.44 -11)"/><path d="M45.88,45.24c.54,2.7,2.13,3,4.46,2.12,4.42-1.75,8.9-3.34,13.31-5.13a5.52,5.52,0,0,1,6.09.85c10.13,7.63,20.41,15.06,30.63,22.57,5,3.64,8.53,2.35,9.8-3.64,2.4-11.35,4.8-22.69,7-34.06.57-2.9,1.79-4.58,4.75-5.43,6.09-1.76,12.06-3.91,18.1-5.86,3-1,4.3.08,3.75,3.15-2.85,15.87-6.2,31.67-8.38,47.63-.95,6.89-3.69,11-9.51,14.48-7.83,4.72-12.64,12.3-15.7,20.9-1.31,3.69-1.32,3.78-4.18,1.41Q86.4,87.94,66.81,71.59L47.08,55.17c-1.42-1.18-2.95-2.07-4.91-1.56C41,49.83,41.72,48.27,45.88,45.24Z" transform="translate(-7.44 -11)" style="fill:#34495e"/><path d="M105.75,220.11A57.19,57.19,0,0,1,93.41,220,12.93,12.93,0,0,0,82,224.11a47,47,0,0,1-27.65,14.2c-2.8.39-5.65,1-8.11-1.27-.93-.87-2.24-.29-3.38-.24-.75-2.87,1.76-4.94,1.86-7.6,2.79.93,4.3-.28,5.34-2.85A90.5,90.5,0,0,0,54,214.68c.8-3.17.18-6.17-2.45-8.34-15.19-12.56-17.35-38.92-9-55.9,4.8-9.78,13.08-15.83,23-19.82,2.72-1.1,5.44-2.32,8.44-2.52-2.84,7-3.78,14.32-4,21.69-.23,7,.93,13.92,2.41,20.76,3.22,14.81,9.51,28,20.35,38.85,3.16,3.16,6.91,5.59,10.56,8.13C104.24,218.21,105.69,218.51,105.75,220.11Z" transform="translate(-7.44 -11)" style="fill:#f8debb"/><path d="M48.55,71.46c-.64,2.33,1,3.45,2.46,4.7l46.22,40.18c.61.53,1.41.9,1.75,2-8,.25-15.84.74-23.53,2.64-3.89,1-7.76,2-11.58,3.26a3.22,3.22,0,0,1-3.44-.68Q37.52,104.48,14.58,85.41c-2.81-2.34-2.51-4.25,1-5.87,9.23-4.24,18.92-7.26,28.46-10.7.4-.14.78-.3,1.17-.45A11.68,11.68,0,0,0,48.55,71.46Z" transform="translate(-7.44 -11)" style="fill:#41b681"/><path d="M209.94,75.8c2.64.4,4.91,2.17,7.69,2-.4,3,1,4.73,3.65,6.17,14.37,7.82,20.14,20.69,20.84,36.38.61,13.75-3.07,25.91-13.38,35.56-3.06,2.86-3.61,6.28-2.45,10.15a100.2,100.2,0,0,0,6.34,16.18c2.26,4.52.79,6.6-4.2,6.28A43.39,43.39,0,0,1,200.05,176c-4.56-4.49-9.32-7.12-15.78-6a6.46,6.46,0,0,1-1.57-.11,4.21,4.21,0,0,1-1.46-3.37,56,56,0,0,0-10.84-30.69c-.56-.75-1.43-1.6-1.06-2.52.44-1.12,1.68-.44,2.57-.57s2.11.19,3.13-.23c4.34,0,8.69,0,13-.14a2.6,2.6,0,0,1,3,2.07,75.31,75.31,0,0,0,2.68,7.12c.76,1.78,2,3.18,4.19,2.28s2.27-2.52,1.53-4.48Q190.72,116.3,182,93.17c-.71-1.9-1.88-3.33-4.14-3.32-2.41,0-3.51,1.61-4.28,3.61q-6,15.67-12.05,31.32c-1.54.94-2.64-.22-3.7-.94-11.33-7.66-23.91-11.61-37.43-13-1.78-.17-3.91,0-5.08-2,2.42-11.81,9.62-19.88,19.94-25.53C146.09,77.46,157.94,75.8,170,75a121.35,121.35,0,0,1,33.38,2.36C206.1,77.92,208.08,77.68,209.94,75.8Z" transform="translate(-7.44 -11)" style="fill:#8bacdf"/><path d="M105.75,220.11a66.27,66.27,0,0,1-27.54-29.64A98.37,98.37,0,0,1,70,161.75,75.8,75.8,0,0,1,71.43,133c.44-1.84.8-3.74,2.51-4.93,7.19-2.56,14.73-2.84,22.21-3.18,13.17-.6,26.23.25,38.89,4.34,21.46,6.93,33.09,22.42,31.3,47.79-1.1,15.72-8.07,27.78-22.47,35a71.14,71.14,0,0,1-21.68,6.77A102.73,102.73,0,0,1,105.75,220.11Z" transform="translate(-7.44 -11)" style="fill:#f9efcd"/><path d="M179.6,67.92a165,165,0,0,0-25.36,2.48c-2.21.39-2.32-.24-1.94-2q3.82-18,7.62-35.95a5.48,5.48,0,0,1,3.82-4.26c7.15-2.57,14.26-5.27,21.42-7.84,3.64-1.3,5.44.36,4.69,4.21-2.64,13.59-5.27,27.17-8,40.74C181.6,66.56,182,69.18,179.6,67.92Z" transform="translate(-7.44 -11)" style="fill:#41b681"/><path d="M115.32,108.91c4.37,1.7,9.08,1.34,13.59,2.28,11,2.3,21.37,6.17,30.59,12.8a8.4,8.4,0,0,0,2,.79c-1.18,3.25-2.37,6.5-3.68,10.09a69,69,0,0,0-17.17-10.14,92,92,0,0,0-24.6-5.48c-2.12-.21-2.73-.92-2.32-3C114.25,113.81,114.08,111.22,115.32,108.91Z" transform="translate(-7.44 -11)" style="fill:#6a93d4"/><path d="M175,132.55c-1.56,1.19-3.49.08-5.34.82,3.29,4.61,6.41,9.19,8.32,14.47,2.2,6,4,12.18,4.07,18.7a21.18,21.18,0,0,0,.61,3.39c-.52.11-1,.25-1.55.31-8,.84-8.1.79-9.11-6.89A45.35,45.35,0,0,0,163.89,142c-2.25-3.06.12-5.36.88-7.93.67-2.27,2.65-1.6,4.26-1.62C171,132.46,173,132.52,175,132.55Z" transform="translate(-7.44 -11)" style="fill:#6a93d4"/><path d="M177.86,99.63c3.21,8.47,6.22,16.4,9.22,24.33.61,1.62.13,2.28-1.68,2.26-5.17-.08-10.34,0-15.52,0-1.06,0-2.27.2-1.57-1.62C171.45,116.43,174.55,108.29,177.86,99.63Z" transform="translate(-7.44 -11)" style="fill:#8bacdf"/><path d="M94.92,157.24c-4.34,0-8.68,0-13,0-2.27,0-4.13-.63-4.15-3.23s1.94-3.24,4.15-3.24c4.77,0,9.54-.12,14.3.05,2.16.08,2.85-.66,2.7-2.71a30.77,30.77,0,0,1,0-5.08c.19-1.92,1-3.56,3.28-3.58s3,1.57,3.21,3.56c0,.31,0,.63,0,.95.24,6.8.24,6.8,7.15,6.81,3.39,0,6.78,0,10.17,0,2.07,0,3.93.59,3.94,3.11s-1.8,3.32-4.06,3.33c-.85,0-1.7,0-2.54-.09-1.94-.19-2.91.57-3.13,2.59-.89,8-4.17,15-8.82,21.45-1.75,2.42-1.16,3.47,1.34,4.28,1.9.62,3.79,1.28,5.69,1.93s3.19,1.64,2.77,3.92-2.28,2.66-4.12,2.41a23.08,23.08,0,0,1-9.44-3.49c-1.65-1.06-2.8-.88-4.12.53a47.22,47.22,0,0,1-10.09,8.15c-1.82,1.11-3.71,1.49-5.05-.49-1.43-2.13-.23-3.7,1.58-5.05,2.71-2,5.32-4.18,8-6.25,1.75-1.35,2.18-2.51.19-4.2a28.57,28.57,0,0,1-6-7.73c-1.11-1.94-1.4-3.88.84-5.22s3.59,0,4.7,1.76a48,48,0,0,0,5,6.5c1.2,1.3,1.89,1.52,3-.14a52.39,52.39,0,0,0,8.1-18.44c.42-1.95-.17-2.46-2-2.44C104,157.28,99.48,157.24,94.92,157.24Z" transform="translate(-7.44 -11)"/></svg>