<svg xmlns="http://www.w3.org/2000/svg" viewBox="0 0 237.87 197.79"><path d="M169.16,83.84a5.32,5.32,0,0,0-.57-2.08,69.21,69.21,0,0,0-27.45-34.69c-27.48-17.92-56.69-20.16-86-5.72C27.45,55,12.52,77.76,14,109.57a61.84,61.84,0,0,0,18.36,41.7c1.35,1.38,5.53,6.52,6.71,7.85a62.36,62.36,0,0,0,5.28,5.33l-3.13,7.38c-1.48,4.08-3,6.93-4.41,11.08,1.07.34,1.69-.41,2.41-.77C46,178.67,52.79,175.06,60,172.4a9.87,9.87,0,0,1,5.73-.55,88.25,88.25,0,0,0,28.66,4.75c43.7,0,79.13-31.29,79.13-69.89A62.67,62.67,0,0,0,169.16,83.84Z" transform="translate(-4.79 -31.89)" style="fill:#76d040"/><path d="M171.54,86.54a78.54,78.54,0,0,1,27.19,5.09,75.2,75.2,0,0,1,23.78,14.82,61.18,61.18,0,0,1,19.2,33.89,65.9,65.9,0,0,1,.93,11.26A59.45,59.45,0,0,1,241,167.45a54.74,54.74,0,0,1-19.25,30.43c-.55.44-.93,1.18-1.54,1.42-4.6,1.89-3.71,5.46-2.81,9a109.87,109.87,0,0,0,4.29,12.84c.18.46.79,1,.25,1.46s-1-.09-1.52-.18c-1.13-.18-1.93-1-2.89-1.49a183.12,183.12,0,0,0-17.62-8.08,7,7,0,0,0-5,.13,61.29,61.29,0,0,1-17.46,3.63c-8.79.42-17.6.26-26.17-2.45-2.51-.79-5-1.61-7.59-2.27-1.81-.47-18-9.65-19.33-10.69-10.09-8.06-17.6-17.91-21.82-30.22a58.21,58.21,0,0,1-3.16-15.92c-.88-16,4-29.92,14.12-42.22s23-19.83,38.15-23.92a52.28,52.28,0,0,1,15.64-2.09C168.5,86.88,169.65,86.1,171.54,86.54Z" transform="translate(-4.79 -31.89)" style="fill:#ededed"/><path d="M151.09,121.92a8.25,8.25,0,0,1,8.31,8.54,8.44,8.44,0,0,1-8.51,8.43,8.57,8.57,0,0,1-8.49-8.52A8.37,8.37,0,0,1,151.09,121.92Z" transform="translate(-4.79 -31.89)" style="fill:#241f20"/><path d="M204.12,130.41a8.43,8.43,0,0,1-8.48,8.48,8.54,8.54,0,0,1-8.51-8.71,8.33,8.33,0,0,1,8.63-8.26A8.23,8.23,0,0,1,204.12,130.41Z" transform="translate(-4.79 -31.89)" style="fill:#241f20"/><path d="M116,68.85a9.48,9.48,0,0,1,9.62,9.64,9.73,9.73,0,0,1-9.72,9.66,9.55,9.55,0,0,1-9.56-9.75A9.34,9.34,0,0,1,116,68.85Z" transform="translate(-4.79 -31.89)" style="fill:#241f20"/><path d="M67.65,69a9.65,9.65,0,1,1-.08,19.3A9.65,9.65,0,0,1,67.65,69Z" transform="translate(-4.79 -31.89)" style="fill:#241f20"/><path d="M51.24,227.68a5.14,5.14,0,0,1-3.42-1.43q-.45-.41-.87-.84L9.33,187.68c-3.42-3.43-3.41-5.53,0-9l37.39-37.5c1.27-1.27,2.66-2.51,4.44-2.51s3.14,1.22,4.38,2.46c.42.41.82.83,1.23,1.25.62.63,1.24,1.27,1.88,1.89a4.34,4.34,0,0,1,1.52,3.42,5.15,5.15,0,0,1-2,4.14l-.28.27-6.42,6.46c-8,8-16.22,16.29-24.4,24.38l-.24.25a3.92,3.92,0,0,0,.29.29c8.1,8,16.29,16.26,24.21,24.21l6.43,6.47c3.29,3.29,3.3,5.52,0,8.81l-.57.58c-.87.87-1.73,1.74-2.62,2.6A4.91,4.91,0,0,1,51.24,227.68Z" transform="translate(-4.79 -31.89)" style="fill:#040000"/><path d="M51.2,140.68c.86,0,1.72.63,3,1.88,1,1,2.07,2.12,3.13,3.15a2.37,2.37,0,0,1,.9,2c.15,1.44-.84,2.18-1.65,3C46.29,161,36.07,171.31,25.74,181.53c-1.42,1.4-1.31,2.05,0,3.38C36,195.08,46.22,205.34,56.42,215.58c2.53,2.54,2.53,3.47,0,6-1.05,1.06-2.08,2.12-3.15,3.14a3,3,0,0,1-2.06,1,3.24,3.24,0,0,1-2.1-.93c-.35-.31-.67-.65-1-1l-37.39-37.5c-2.64-2.64-2.63-3.5,0-6.17l37.39-37.5c1.28-1.28,2.15-1.92,3-1.92m0-4h0c-2.55,0-4.36,1.6-5.85,3.1Q26.65,158.52,8,177.28c-4.2,4.21-4.21,7.63,0,11.81l31.74,31.83,5.66,5.67.21.22c.28.28.6.61,1,.94a7.07,7.07,0,0,0,4.74,1.93,6.89,6.89,0,0,0,4.83-2.08c.91-.88,1.8-1.78,2.66-2.64l.56-.57c4-4.08,4-7.56,0-11.63l-6.5-6.53c-7.53-7.56-15.3-15.37-23-23C37.52,175.48,45.36,167.6,53,160l6.42-6.45.25-.24a7.08,7.08,0,0,0,2.58-5.6,6.29,6.29,0,0,0-2.13-4.84c-.61-.6-1.21-1.21-1.85-1.86L57,139.73c-1.07-1.07-3-3-5.8-3Z" transform="translate(-4.79 -31.89)" style="fill:#fff"/><path d="M121.73,227.65a4.84,4.84,0,0,1-3.54-1.61l-1.6-1.61c-.63-.63-1.25-1.25-1.87-1.89-2.68-2.76-2.67-5.21,0-7.95q7.4-7.46,14.82-14.88l5.36-5.38q1.53-1.53,3.05-3.08c2.58-2.6,5.24-5.29,7.93-7.87l.18-.18L146,183c-8-8-16.17-16.12-24-24l-6.63-6.66c-3.51-3.52-3.5-5.57.06-9.15l.62-.62c.63-.63,1.25-1.26,1.89-1.88a4.89,4.89,0,0,1,8,.08Q145,160,164.22,179.28c2.63,2.64,2.64,5.2,0,7.82Q149.45,202,134.6,216.85l-8.89,8.92a5.21,5.21,0,0,1-3.76,1.87Z" transform="translate(-4.79 -31.89)" style="fill:#040000"/><path d="M121.82,140.7a4,4,0,0,1,2.6,1.5q19.2,19.23,38.39,38.49c1.86,1.87,1.87,3.14,0,5Q143.58,205,124.29,224.35a3.31,3.31,0,0,1-2.34,1.29h-.22a2.91,2.91,0,0,1-2.11-1c-1.15-1.17-2.32-2.32-3.47-3.49-1.91-2-1.93-3.17,0-5.15q10.07-10.14,20.18-20.25c3.64-3.65,7.22-7.36,10.95-10.92,1.28-1.23,1.37-1.9,0-3.22-10.26-10.17-20.44-20.43-30.64-30.66-2.72-2.73-2.71-3.53.07-6.33.82-.83,1.64-1.66,2.48-2.48a3.91,3.91,0,0,1,2.56-1.44m0-4h0a7.83,7.83,0,0,0-5.35,2.57c-.65.64-1.3,1.29-1.94,1.94l-.59.59c-1.63,1.65-3.23,3.46-3.26,6s1.57,4.37,3.2,6l6.69,6.72c7.42,7.45,15.08,15.14,22.69,22.69-2.28,2.22-4.52,4.48-6.69,6.68q-1.51,1.54-3,3.06l-5.36,5.38q-7.41,7.44-14.82,14.88c-3.48,3.5-3.5,7.22-.06,10.76l1.91,1.92,1.56,1.58a6.83,6.83,0,0,0,5,2.21H122a7.15,7.15,0,0,0,5.14-2.46l8.16-8.18q15.19-15.24,30.39-30.49c3.41-3.42,3.4-7.2,0-10.64-12.56-12.62-25.48-25.57-38.39-38.5a7.81,7.81,0,0,0-5.43-2.67Z" transform="translate(-4.79 -31.89)" style="fill:#fff"/></svg>